<svg aria-hidden="true" style="position: absolute; width: 0; height: 0; overflow: hidden;" version="1.1" xmlns="http://www.w3.org/2000/svg" xmlns:xlink="http://www.w3.org/1999/xlink">
<defs>
<symbol id="icon-flower" viewBox="0 0 37 32">
<path fill="#d8ae5e" style="fill: var(--color1, #d8ae5e)" d="M11.694 14.706c2.106 1.294 3.931 3.006 5.362 5.031 0.438 0.619 0.837 1.269 1.194 1.938 0.356-0.675 0.756-1.319 1.194-1.938 1.431-2.025 3.256-3.738 5.363-5.031 2.794-1.719 6.075-2.706 9.569-2.706h0.619c0.694 0 1.256 0.563 1.256 1.256 0 9.25-7.494 16.744-16.744 16.744h-2.512c-9.25 0-16.744-7.494-16.744-16.744 0-0.694 0.563-1.256 1.256-1.256h0.619c3.494 0 6.775 0.988 9.569 2.706zM19.094 2.35c0.981 1.056 3.819 4.488 5.275 10.287-2.375 1.35-4.462 3.175-6.119 5.35-1.656-2.175-3.744-3.994-6.119-5.35 1.45-5.8 4.287-9.231 5.275-10.287 0.219-0.231 0.525-0.35 0.844-0.35s0.625 0.119 0.844 0.35z"></path>
</symbol>
<symbol id="icon-sanky" viewBox="0 0 37 32">
<path fill="#d8ae5e" style="fill: var(--color1, #d8ae5e)" d="M2.050 2c-0.996 0-1.8 0.894-1.8 2s0.804 2 1.8 2v10c0 3.313 2.419 6 5.4 6v2h3.6v-2h10.8v2h3.6v-2c2.981 0 5.4-2.688 5.4-6v-6c0.996 0 1.8-0.894 1.8-2s-0.804-2-1.8-2h-3.6c-0.996 0-1.8 0.894-1.8 2v2.581c0 1.887-1.378 3.419-3.077 3.419-4.247 0-8.19-2.431-10.44-6.431l-0.242-0.431c-1.643-2.912-4.41-4.787-7.464-5.094-0.124-0.031-0.248-0.044-0.377-0.044h-1.8zM36.25 24c0-1.106-0.804-2-1.8-2s-1.8 0.894-1.8 2v0.5c0 0.831-0.602 1.5-1.35 1.5h-27.45c-0.996 0-1.8 0.894-1.8 2s0.804 2 1.8 2h27.45c2.734 0 4.95-2.462 4.95-5.5v-0.5z"></path>
</symbol>
<symbol id="icon-snowboard" viewBox="0 0 33 32">
<path fill="#d8ae5e" style="fill: var(--color1, #d8ae5e)" d="M13.356 0.212c0.988-0.494 2.188-0.094 2.681 0.894l1.563 3.125 2.65 0.531c1.219 0.244 2.363 0.769 3.344 1.531l7.881 6.131c0.875 0.681 1.031 1.938 0.35 2.806s-1.938 1.031-2.806 0.35l-4.506-3.506-4.469 1.988 2.069 1.725c1.45 1.206 2.094 3.125 1.669 4.962l-1.087 4.7c-0.137 0.587-0.512 1.050-1.006 1.313l5.406 2.069c0.288 0.113 0.587 0.163 0.894 0.163h1.762c0.831 0 1.5 0.669 1.5 1.5s-0.669 1.5-1.5 1.5h-1.762c-0.675 0-1.337-0.125-1.969-0.363l-22.012-8.425c-0.719-0.275-1.375-0.7-1.925-1.25l-1.394-1.394c-0.588-0.587-0.588-1.538 0-2.119s1.537-0.587 2.119 0l1.4 1.4c0.25 0.25 0.544 0.444 0.875 0.569l1.4 0.538c-0.050-0.1-0.094-0.2-0.131-0.306-0.35-1.050 0.219-2.181 1.263-2.531l4.638-1.556v-3.325c0-1.512 0.856-2.9 2.213-3.575l2.825-1.412-0.469-0.094c-1.213-0.244-2.244-1.031-2.794-2.131l-1.563-3.125c-0.494-0.988-0.094-2.188 0.894-2.681zM8.938 21.881l9.938 3.806c-0.131-0.35-0.163-0.744-0.069-1.137l1.087-4.7c0.087-0.369-0.044-0.75-0.331-0.994l-3.3-2.75v1.175c0 1.294-0.825 2.438-2.050 2.844l-5.275 1.756zM27.25 0c0.796 0 1.559 0.316 2.121 0.879s0.879 1.326 0.879 2.121-0.316 1.559-0.879 2.121c-0.563 0.563-1.326 0.879-2.121 0.879s-1.559-0.316-2.121-0.879c-0.563-0.563-0.879-1.326-0.879-2.121s0.316-1.559 0.879-2.121c0.563-0.563 1.326-0.879 2.121-0.879z"></path>
</symbol>
<symbol id="icon-sweem" viewBox="0 0 36 32">
<path fill="#d8ae5e" style="fill: var(--color1, #d8ae5e)" d="M19.344 11.15l8.65 7.419c-0.1 0.056-0.2 0.125-0.3 0.188-1.125 0.775-2.506 1.269-3.7 1.269-1.225 0-2.55-0.481-3.7-1.269-1.381-0.969-3.225-0.969-4.606 0-1.069 0.738-2.375 1.269-3.7 1.269-0.631 0-1.319-0.137-1.994-0.387 0.2-7.563 6.394-13.637 14.006-13.637h4c1.106 0 2 0.894 2 2s-0.894 2-2 2h-4c-1.681 0-3.269 0.412-4.656 1.15zM10 10c0 1.061-0.421 2.078-1.172 2.828s-1.768 1.172-2.828 1.172-2.078-0.421-2.828-1.172c-0.75-0.75-1.172-1.768-1.172-2.828s0.421-2.078 1.172-2.828c0.75-0.75 1.768-1.172 2.828-1.172s2.078 0.421 2.828 1.172c0.75 0.75 1.172 1.768 1.172 2.828zM19.156 20.369c1.406 0.969 3.125 1.631 4.844 1.631 1.681 0 3.462-0.675 4.837-1.631 0.744-0.531 1.756-0.488 2.45 0.106 0.9 0.744 2.031 1.313 3.162 1.575 1.075 0.25 1.744 1.325 1.494 2.4s-1.325 1.744-2.4 1.494c-1.531-0.356-2.806-1.031-3.637-1.563-1.813 0.975-3.844 1.619-5.906 1.619-1.994 0-3.788-0.619-5.025-1.181-0.363-0.169-0.694-0.331-0.975-0.481-0.281 0.15-0.606 0.319-0.975 0.481-1.238 0.563-3.031 1.181-5.025 1.181-2.063 0-4.094-0.644-5.906-1.613-0.838 0.525-2.106 1.206-3.638 1.563-1.075 0.25-2.15-0.419-2.4-1.494s0.419-2.15 1.494-2.4c1.131-0.262 2.263-0.831 3.163-1.575 0.694-0.587 1.706-0.631 2.45-0.106 1.381 0.95 3.156 1.625 4.838 1.625 1.719 0 3.438-0.663 4.844-1.631 0.694-0.494 1.619-0.494 2.313 0z"></path>
</symbol>
<symbol id="icon-human" viewBox="0 0 24 32">
<path fill="#d8ae5e" style="fill: var(--color1, #d8ae5e)" d="M12 3c0-0.796 0.316-1.559 0.879-2.121s1.326-0.879 2.121-0.879c0.796 0 1.559 0.316 2.121 0.879s0.879 1.326 0.879 2.121-0.316 1.559-0.879 2.121c-0.563 0.563-1.326 0.879-2.121 0.879s-1.559-0.316-2.121-0.879c-0.563-0.563-0.879-1.326-0.879-2.121zM15.206 14.419l-1.194 4.769 3.106 3.106c0.563 0.563 0.881 1.325 0.881 2.119v5.588c0 1.106-0.894 2-2 2s-2-0.894-2-2v-5.169l-4.619-4.619c-0.988-0.988-1.388-2.413-1.056-3.769l1.275-5.25c0.519-2.131 2.669-3.431 4.794-2.9 1.188 0.3 2.225 1.025 2.9 2.044l1.775 2.662h1.931v-1.5c0-0.831 0.669-1.5 1.5-1.5s1.5 0.669 1.5 1.5v3.487c0 0.006 0 0.012 0 0.012v15.5c0 0.831-0.669 1.5-1.5 1.5s-1.5-0.669-1.5-1.5v-13.5h-2.462c-1 0-1.938-0.5-2.494-1.338l-0.831-1.25-0.006 0.006zM5.069 29.494l2.263-8.619c0.188 0.262 0.4 0.512 0.631 0.744l2.619 2.619-1.65 6.269c-0.281 1.069-1.375 1.706-2.444 1.425s-1.706-1.375-1.425-2.444l0.006 0.006zM8.537 7.869l-2.2 8.787c-0.188 0.756-0.931 1.244-1.7 1.119l-2.994-0.5c-0.875-0.144-1.431-1.019-1.2-1.875l1.55-5.713c0.594-2.175 2.569-3.688 4.825-3.688h0.263c0.975 0 1.694 0.919 1.456 1.862v0.006z"></path>
</symbol>
<symbol id="icon-knife" viewBox="0 0 28 32">
<path fill="#d8ae5e" style="fill: var(--color1, #d8ae5e)" d="M26 0c-1 0-8 2-8 11v7c0 2.206 1.794 4 4 4h2v8c0 1.106 0.894 2 2 2s2-0.894 2-2v-28c0-1.106-0.894-2-2-2zM4 1c0-0.512-0.381-0.938-0.894-0.994s-0.969 0.281-1.081 0.775l-1.894 8.519c-0.087 0.394-0.131 0.794-0.131 1.194 0 2.869 2.194 5.225 5 5.481v14.025c0 1.106 0.894 2 2 2s2-0.894 2-2v-14.025c2.806-0.256 5-2.612 5-5.481 0-0.4-0.044-0.8-0.131-1.194l-1.894-8.519c-0.113-0.5-0.581-0.831-1.088-0.775s-0.887 0.481-0.887 0.994v8.387c0 0.338-0.275 0.613-0.613 0.613-0.319 0-0.581-0.244-0.613-0.563l-0.781-8.525c-0.044-0.519-0.475-0.912-0.994-0.912s-0.95 0.394-0.994 0.912l-0.775 8.525c-0.031 0.319-0.294 0.563-0.612 0.563-0.338 0-0.612-0.275-0.612-0.613v-8.387h-0.006zM7.019 10.5h-0.037l0.019-0.044 0.019 0.044z"></path>
</symbol>
<symbol id="icon-tree" viewBox="0 0 29 32">
<path fill="#d8ae5e" style="fill: var(--color1, #d8ae5e)" d="M13.412 0.369l-9.287 10.219c-0.244 0.262-0.375 0.613-0.375 0.969 0 0.8 0.644 1.444 1.444 1.444h1.556l-4.588 4.587c-0.262 0.262-0.413 0.625-0.413 1 0 0.781 0.631 1.413 1.413 1.413h2.088l-4.662 5.594c-0.219 0.262-0.338 0.594-0.338 0.938 0 0.813 0.656 1.469 1.469 1.469h10.531v2c0 1.106 0.894 2 2 2s2-0.894 2-2v-2h10.531c0.813 0 1.469-0.656 1.469-1.469 0-0.344-0.119-0.675-0.337-0.938l-4.663-5.594h2.087c0.781 0 1.413-0.631 1.413-1.413 0-0.375-0.15-0.738-0.413-1l-4.587-4.588h1.556c0.794 0 1.444-0.644 1.444-1.444 0-0.356-0.131-0.706-0.375-0.969l-9.287-10.219c-0.213-0.237-0.519-0.369-0.838-0.369s-0.625 0.131-0.838 0.369z"></path>
</symbol>
<symbol id="icon-triangle" viewBox="0 0 43 32">
<path fill="#d8ae5e" style="fill: var(--color1, #d8ae5e)" d="M3.583 25.917c-0.758 1.233-0.783 2.783-0.075 4.042s2.042 2.042 3.492 2.042h29.333c1.45 0 2.783-0.783 3.492-2.042s0.675-2.808-0.075-4.042l-14.667-24c-0.725-1.192-2.017-1.917-3.417-1.917s-2.683 0.725-3.417 1.917l-14.667 24z"></path>
</symbol>
</defs>
</svg>
